<svg width="334" height="160" viewBox="0 0 334 160" fill="none" xmlns="http://www.w3.org/2000/svg">
<path fill-rule="evenodd" clip-rule="evenodd" d="M12.2326 1.97675C6.58127 1.97675 2 6.55802 2 12.2093V147.791C2 153.442 6.58128 158.023 12.2326 158.023H147.814C153.465 158.023 158.047 153.442 158.047 147.791V105.748C160.478 106.472 163.054 106.86 165.721 106.86C180.556 106.86 192.581 94.8346 192.581 80C192.581 65.1654 180.556 53.1395 165.721 53.1395C163.054 53.1395 160.478 53.5282 158.047 54.2519V12.2093C158.047 6.55802 153.465 1.97675 147.814 1.97675H12.2326Z" fill="#40DB88"/>
<path d="M158.047 105.748L158.411 104.522L156.767 104.033V105.748H158.047ZM158.047 54.2519H156.767V55.967L158.411 55.4778L158.047 54.2519ZM3.27907 12.2093C3.27907 7.26443 7.28768 3.25582 12.2326 3.25582V0.697676C5.87486 0.697676 0.72093 5.85161 0.72093 12.2093H3.27907ZM3.27907 147.791V12.2093H0.72093V147.791H3.27907ZM12.2326 156.744C7.28769 156.744 3.27907 152.736 3.27907 147.791H0.72093C0.72093 154.148 5.87487 159.302 12.2326 159.302V156.744ZM147.814 156.744H12.2326V159.302H147.814V156.744ZM156.767 147.791C156.767 152.736 152.759 156.744 147.814 156.744V159.302C154.172 159.302 159.326 154.148 159.326 147.791H156.767ZM156.767 105.748V147.791H159.326V105.748H156.767ZM165.721 105.581C163.179 105.581 160.726 105.211 158.411 104.522L157.682 106.974C160.23 107.733 162.929 108.14 165.721 108.14V105.581ZM191.302 80C191.302 94.1282 179.849 105.581 165.721 105.581V108.14C181.262 108.14 193.86 95.541 193.86 80H191.302ZM165.721 54.4186C179.849 54.4186 191.302 65.8718 191.302 80H193.86C193.86 64.459 181.262 51.8605 165.721 51.8605V54.4186ZM158.411 55.4778C160.726 54.789 163.179 54.4186 165.721 54.4186V51.8605C162.929 51.8605 160.23 52.2674 157.682 53.0259L158.411 55.4778ZM156.767 12.2093V54.2519H159.326V12.2093H156.767ZM147.814 3.25582C152.759 3.25582 156.767 7.26443 156.767 12.2093H159.326C159.326 5.85161 154.172 0.697676 147.814 0.697676V3.25582ZM12.2326 3.25582H147.814V0.697676H12.2326V3.25582Z" fill="#155757"/>
<path d="M76.7304 70.14C72.0955 70.14 69.3403 72.4317 69.3403 75.6761C69.3403 78.56 71.2973 80.0277 74.3614 80.6457L78.2238 81.4182C79.8975 81.7529 80.5928 82.4739 80.5928 83.5554C80.5928 85.0231 79.4083 85.7698 77.2196 85.7698C74.9279 85.7698 72.662 84.7398 70.9368 82.7056L68.6966 85.5123C70.5763 87.5465 73.4602 88.834 77.0136 88.834C81.3652 88.834 84.1719 86.7483 84.1719 83.1176C84.1719 80.3625 82.4209 78.869 79.228 78.2253L75.6232 77.5043C73.7692 77.1438 72.9452 76.5516 72.9452 75.3156C72.9452 74.0024 74.2327 73.2042 76.4729 73.2042C78.6873 73.2042 80.3353 73.8994 82.1635 75.6504L84.2749 73.0497C82.318 71.1442 80.0005 70.14 76.7304 70.14ZM90.7162 70.4233H87.2143V88.5507H100.424V85.3836H90.7162V70.4233ZM109.646 70.14C105.011 70.14 102.256 72.4317 102.256 75.6761C102.256 78.56 104.213 80.0277 107.277 80.6457L111.14 81.4182C112.813 81.7529 113.509 82.4739 113.509 83.5554C113.509 85.0231 112.324 85.7698 110.135 85.7698C107.844 85.7698 105.578 84.7398 103.853 82.7056L101.612 85.5123C103.492 87.5465 106.376 88.834 109.929 88.834C114.281 88.834 117.088 86.7483 117.088 83.1176C117.088 80.3625 115.337 78.869 112.144 78.2253L108.539 77.5043C106.685 77.1438 105.861 76.5516 105.861 75.3156C105.861 74.0024 107.148 73.2042 109.389 73.2042C111.603 73.2042 113.251 73.8994 115.079 75.6504L117.191 73.0497C115.234 71.1442 112.916 70.14 109.646 70.14ZM124.974 70.4233L118.125 88.5507H121.652L123.3 84.1734H130.742L132.39 88.5507H136.072L129.197 70.4233H124.974ZM127.06 73.8737L129.738 81.2379H124.304L127.06 73.8737Z" fill="#155757"/>
<g clip-path="url(#clip0_170_7214)">
<path fill-rule="evenodd" clip-rule="evenodd" d="M57.6883 64.6512L57.7695 64.5593L56.188 63.1617L55.4892 63.9524C55.2806 64.1885 55.069 64.4214 54.8544 64.6512H30.1395V66.2958L28.6875 67.1907L29.2412 68.0891C29.531 68.5595 29.8306 69.0219 30.1395 69.4763V89.1936C30.1324 89.1938 30.1252 89.1939 30.1181 89.1941L29.063 89.2156L29.1059 91.3257L30.1395 91.3047V94.1995H59.6878V75.4819C59.9918 75.0444 60.2871 74.5991 60.5734 74.1464C61.0543 73.4226 61.4115 72.8037 61.6505 72.3612C61.7707 72.1388 61.8612 71.9605 61.9228 71.8354C61.9535 71.7729 61.9771 71.7236 61.9936 71.6887L62.0129 71.6472L62.0186 71.6348L62.0204 71.6308L62.0211 71.6293L62.0214 71.6287L62.0215 71.6284C62.0215 71.6283 62.0216 71.6282 61.0597 71.1941L62.0216 71.6282L62.4557 70.6663L60.5319 69.7981L60.0984 70.7588L60.0983 70.759L60.0982 70.7592L60.098 70.7596L60.0979 70.7598L60.0978 70.76L60.0961 70.7637L60.0842 70.7894C60.0727 70.8136 60.0544 70.852 60.0291 70.9033C59.9786 71.006 59.9003 71.1605 59.7935 71.3581C59.7609 71.4185 59.7257 71.4828 59.6878 71.5509V64.6512H57.6883ZM57.6883 64.6512H54.8544C50.2014 69.6361 44.1766 73.1456 37.5493 74.7354C35.043 72.5107 32.8417 69.9084 31.0379 66.9817L30.4842 66.0834L30.1395 66.2958V69.4763C31.9774 72.1794 34.1459 74.5963 36.5731 76.6852C40.0619 79.6878 44.0849 82.0127 48.4283 83.5364C44.7508 85.9398 40.627 87.6412 36.2687 88.5184C34.2684 88.921 32.2186 89.15 30.1395 89.1936V91.3047L30.161 91.3042C32.3738 91.2592 34.5558 91.0161 36.6852 90.5875C42.0467 89.5083 47.0729 87.2537 51.414 84.0257C54.5821 81.67 57.3854 78.7959 59.6878 75.4819V71.5509C59.4775 71.9288 59.1856 72.4219 58.8092 72.9877L58.8023 72.9981L58.7957 73.0086C56.577 76.5205 53.7812 79.5547 50.5723 82.0165C46.5873 80.8116 42.8572 78.9018 39.5594 76.3893C46.3095 74.4625 52.3973 70.638 57.0707 65.3501L57.6883 64.6512Z" fill="#FF3400"/>
</g>
<path fill-rule="evenodd" clip-rule="evenodd" d="M186.186 1.97675C180.535 1.97675 175.953 6.55802 175.953 12.2093V54.2519C178.385 53.5282 180.961 53.1395 183.628 53.1395C198.463 53.1395 210.488 65.1654 210.488 80C210.488 94.8346 198.463 106.86 183.628 106.86C180.961 106.86 178.385 106.472 175.953 105.748V147.791C175.953 153.442 180.535 158.023 186.186 158.023H321.767C327.419 158.023 332 153.442 332 147.791V12.2093C332 6.55802 327.419 1.97675 321.767 1.97675H186.186Z" fill="#B4F3C9"/>
<path d="M175.953 54.2519H174.674V55.967L176.318 55.4778L175.953 54.2519ZM175.953 105.748L176.318 104.522L174.674 104.033V105.748H175.953ZM177.233 12.2093C177.233 7.26443 181.241 3.25582 186.186 3.25582V0.697676C179.828 0.697676 174.674 5.85161 174.674 12.2093H177.233ZM177.233 54.2519V12.2093H174.674V54.2519H177.233ZM176.318 55.4778C178.633 54.789 181.086 54.4186 183.628 54.4186V51.8605C180.836 51.8605 178.137 52.2674 175.589 53.0259L176.318 55.4778ZM183.628 54.4186C197.756 54.4186 209.209 65.8718 209.209 80H211.767C211.767 64.459 199.169 51.8605 183.628 51.8605V54.4186ZM209.209 80C209.209 94.1282 197.756 105.581 183.628 105.581V108.14C199.169 108.14 211.767 95.541 211.767 80H209.209ZM183.628 105.581C181.086 105.581 178.633 105.211 176.318 104.522L175.589 106.974C178.137 107.733 180.836 108.14 183.628 108.14V105.581ZM177.233 147.791V105.748H174.674V147.791H177.233ZM186.186 156.744C181.241 156.744 177.233 152.736 177.233 147.791H174.674C174.674 154.148 179.828 159.302 186.186 159.302V156.744ZM321.767 156.744H186.186V159.302H321.767V156.744ZM330.721 147.791C330.721 152.736 326.712 156.744 321.767 156.744V159.302C328.125 159.302 333.279 154.148 333.279 147.791H330.721ZM330.721 12.2093V147.791H333.279V12.2093H330.721ZM321.767 3.25582C326.712 3.25582 330.721 7.26443 330.721 12.2093H333.279C333.279 5.85161 328.125 0.697676 321.767 0.697676V3.25582ZM186.186 3.25582H321.767V0.697676H186.186V3.25582Z" fill="#155757"/>
<path d="M238.219 70.6395C233.614 70.6395 230.877 72.9163 230.877 76.1395C230.877 79.0047 232.821 80.4628 235.865 81.0767L239.702 81.8442C241.365 82.1767 242.056 82.893 242.056 83.9674C242.056 85.4256 240.879 86.1674 238.705 86.1674C236.428 86.1674 234.177 85.1442 232.463 83.1233L230.237 85.9116C232.105 87.9326 234.97 89.2116 238.5 89.2116C242.823 89.2116 245.612 87.1395 245.612 83.5326C245.612 80.7954 243.872 79.3116 240.7 78.6721L237.119 77.9558C235.277 77.5977 234.458 77.0093 234.458 75.7814C234.458 74.4767 235.737 73.6837 237.963 73.6837C240.163 73.6837 241.8 74.3744 243.616 76.114L245.714 73.5302C243.77 71.6372 241.467 70.6395 238.219 70.6395ZM256.59 88.9302C260.862 88.9302 263.113 87.0884 263.113 83.9674C263.113 81.8954 261.86 80.2326 259.583 79.7977V79.7721C261.502 79.414 262.653 77.7512 262.653 75.8326C262.653 72.7116 260.632 70.9209 256.309 70.9209H248.634V88.9302H256.59ZM252.037 73.8116H256.027C257.997 73.8116 259.071 74.5279 259.071 76.114C259.071 77.7256 257.971 78.4163 256.027 78.4163H252.037V73.8116ZM252.037 81.3326H256.462C258.458 81.3326 259.532 82.0744 259.532 83.6349C259.532 85.2465 258.432 86.0395 256.36 86.0395H252.037V81.3326ZM273.923 70.6395C268.628 70.6395 265.277 74.1442 265.277 79.9256C265.277 85.6814 268.628 89.2116 273.923 89.2116C279.193 89.2116 282.493 85.707 282.493 79.9256C282.493 74.1442 279.193 70.6395 273.923 70.6395ZM273.923 73.8372C277.044 73.8372 278.912 76.0116 278.912 79.9256C278.912 83.8651 277.044 86.014 273.923 86.014C270.751 86.014 268.884 83.8395 268.884 79.9256C268.884 76.0372 270.751 73.8372 273.923 73.8372ZM289.006 88.9302V74.707L293.585 88.9302H296.962L301.541 74.7581V88.9302H305.02V70.9209H299.776L295.401 84.8116L291.078 70.9209H285.757V88.9302H289.006Z" fill="#155757"/>
<defs>
<clipPath id="clip0_170_7214">
<path d="M30.1395 70.5608C30.1395 67.297 32.7854 64.6512 36.0492 64.6512H53.7782C57.042 64.6512 59.6878 67.297 59.6878 70.5608V88.2898C59.6878 91.5536 57.042 94.1995 53.7782 94.1995H36.0492C32.7854 94.1995 30.1395 91.5536 30.1395 88.2898V70.5608Z" fill="white"/>
</clipPath>
</defs>
</svg>
